<svg width="120" height="120" viewBox="0 0 120 120" xmlns="http://www.w3.org/2000/svg">
  <defs>
    <linearGradient id="bgGradient" x1="0%" y1="0%" x2="100%" y2="100%">
      <stop offset="0%" style="stop-color:#2d3748;stop-opacity:1" />
      <stop offset="100%" style="stop-color:#1a202c;stop-opacity:1" />
    </linearGradient>
  </defs>
  
  <!-- Background circle with HTMX-style dark theme -->
  <circle cx="60" cy="60" r="55" fill="url(#bgGradient)" stroke="#4a5568" stroke-width="1"/>
  
  <!-- HTMX-style angle brackets (white, more pointy) -->
  <path d="M25 40 L8 60 L25 80" stroke="white" stroke-width="4" fill="none" stroke-linejoin="miter" stroke-miterlimit="10"/>
  <path d="M95 40 L112 60 L95 80" stroke="white" stroke-width="4" fill="none" stroke-linejoin="miter" stroke-miterlimit="10"/>
  
  <!-- Forward slash (HTMX blue) -->
  <path d="M35 80 L45 40" stroke="#3182ce" stroke-width="4" stroke-linecap="round"/>
  
  <!-- Component blocks in a grid pattern -->
  <rect x="55" y="35" width="12" height="12" rx="2" fill="white"/>
  <rect x="73" y="35" width="12" height="12" rx="2" fill="white"/>
  <rect x="55" y="53" width="12" height="12" rx="2" fill="white"/>
  <rect x="73" y="53" width="12" height="12" rx="2" fill="#3182ce"/>
  <rect x="55" y="71" width="12" height="12" rx="2" fill="white"/>
  <rect x="73" y="71" width="12" height="12" rx="2" fill="white"/>
  
  <!-- Connecting lines between components -->
  <line x1="67" y1="41" x2="73" y2="41" stroke="#3182ce" stroke-width="2"/>
  <line x1="67" y1="59" x2="73" y2="59" stroke="white" stroke-width="2"/>
  <line x1="67" y1="77" x2="73" y2="77" stroke="#3182ce" stroke-width="2"/>
  <line x1="61" y1="47" x2="61" y2="53" stroke="#3182ce" stroke-width="2"/>
  <line x1="79" y1="47" x2="79" y2="53" stroke="white" stroke-width="2"/>
  <line x1="61" y1="65" x2="61" y2="71" stroke="#3182ce" stroke-width="2"/>
  <line x1="79" y1="65" x2="79" y2="71" stroke="white" stroke-width="2"/>
</svg>